<svg width="157" height="157" viewBox="0 0 157 157" fill="none" xmlns="http://www.w3.org/2000/svg">
<g filter="url(#filter0_d_0_3053)">
<mask id="mask0_0_3053" style="mask-type:luminance" maskUnits="userSpaceOnUse" x="4" y="0" width="149" height="149">
<path fill-rule="evenodd" clip-rule="evenodd" d="M4 0H153V149H4V0Z" fill="white"/>
</mask>
<g mask="url(#mask0_0_3053)">
<path fill-rule="evenodd" clip-rule="evenodd" d="M52.9191 10.6023L14.5959 48.9487C0.468033 63.0853 0.468033 86.005 14.5959 100.141L52.9191 138.488C63.6324 149.208 80.2389 152.002 93.8968 145.607C88.0167 143.977 82.4669 140.863 77.8501 136.244L66.6233 125.01C66.5836 124.971 66.5404 124.937 66.5012 124.898L28.178 86.5514C21.5512 79.9204 21.5512 69.1698 28.178 62.539L66.5012 24.1926C73.1279 17.5618 83.8721 17.5618 90.4988 24.1926L128.822 62.539C135.449 69.1698 135.449 79.9204 128.822 86.5514L104.466 110.922C104.104 111.284 103.518 111.284 103.156 110.922L82.7006 90.4546L65.8135 73.5575L77.513 61.8511L104.019 88.3733L110.231 82.1583C114.302 78.0851 114.302 71.4812 110.231 67.408L86.2701 43.4329C81.4336 38.5935 73.5922 38.5935 68.7557 43.4329L47.4059 64.7956C42.5699 69.6348 42.5699 77.4802 47.4059 82.3192L69.1185 104.045L89.574 124.513C97.4367 132.38 110.185 132.38 118.048 124.513L142.404 100.141C156.532 86.005 156.532 63.0853 142.404 48.9487L104.081 10.6023C89.953 -3.5341 67.0472 -3.5341 52.9191 10.6023Z" fill="#DE4949"/>
</g>
</g>
<defs>
<filter id="filter0_d_0_3053" x="0" y="0" width="157" height="157" filterUnits="userSpaceOnUse" color-interpolation-filters="sRGB">
<feFlood flood-opacity="0" result="BackgroundImageFix"/>
<feColorMatrix in="SourceAlpha" type="matrix" values="0 0 0 0 0 0 0 0 0 0 0 0 0 0 0 0 0 0 127 0" result="hardAlpha"/>
<feOffset dy="4"/>
<feGaussianBlur stdDeviation="2"/>
<feComposite in2="hardAlpha" operator="out"/>
<feColorMatrix type="matrix" values="0 0 0 0 0 0 0 0 0 0 0 0 0 0 0 0 0 0 0.25 0"/>
<feBlend mode="normal" in2="BackgroundImageFix" result="effect1_dropShadow_0_3053"/>
<feBlend mode="normal" in="SourceGraphic" in2="effect1_dropShadow_0_3053" result="shape"/>
</filter>
</defs>
</svg>
